<?xml version="1.0"?>
<svg width="640" height="480" xmlns="http://www.w3.org/2000/svg" xmlns:svg="http://www.w3.org/2000/svg">
 <!-- Created with SVG-edit - https://github.com/SVG-Edit/svgedit-->
 <g class="layer">
  <title>Layer 1</title>
  <line fill="none" id="svg_3" stroke="#000000" stroke-dasharray="null" stroke-linecap="null" stroke-linejoin="null" stroke-width="2" x1="108.5" x2="109.5" y1="85.5" y2="418.5"/>
  <line fill="none" id="svg_4" stroke="#000000" stroke-dasharray="null" stroke-linecap="null" stroke-linejoin="null" stroke-width="2" x1="107.5" x2="456.5" y1="89.5" y2="90.5"/>
  <line fill="none" id="svg_5" stroke="#000000" stroke-dasharray="null" stroke-linecap="null" stroke-linejoin="null" stroke-width="2" x1="552.5" x2="555.5" y1="27.5" y2="326.5"/>
  <line fill="none" id="svg_6" stroke="#000000" stroke-dasharray="null" stroke-linecap="null" stroke-linejoin="null" stroke-width="2" x1="464.5" x2="464.5" y1="134.5" y2="419.5"/>
  <line fill="none" id="svg_7" stroke="#000000" stroke-dasharray="null" stroke-linecap="null" stroke-linejoin="null" stroke-width="2" x1="467.5" x2="188.5" y1="416.5" y2="420.5"/>
  <line fill="none" id="svg_8" stroke="#000000" stroke-dasharray="null" stroke-linecap="null" stroke-linejoin="null" stroke-width="2" x1="317.5" x2="318.5" y1="419.5" y2="369.5"/>
  <line fill="none" id="svg_9" stroke="#000000" stroke-dasharray="null" stroke-linecap="null" stroke-linejoin="null" stroke-width="2" x1="399.5" x2="400.5" y1="419.5" y2="187.5"/>
  <line fill="none" id="svg_10" stroke="#000000" stroke-dasharray="null" stroke-linecap="null" stroke-linejoin="null" stroke-width="2" x1="397.5" x2="436.5" y1="308.5" y2="308.5"/>
  <line fill="none" id="svg_11" stroke="#000000" stroke-dasharray="null" stroke-linecap="null" stroke-linejoin="null" stroke-width="2" x1="402.5" x2="216.5" y1="346.5" y2="343.5"/>
  <line fill="none" id="svg_12" stroke="#000000" stroke-dasharray="null" stroke-linecap="null" stroke-linejoin="null" stroke-width="2" x1="185.5" x2="183.5" y1="86.5" y2="277.5"/>
  <line fill="none" id="svg_13" stroke="#000000" stroke-dasharray="null" stroke-linecap="null" stroke-linejoin="null" stroke-width="2" x1="103.5" x2="166.5" y1="275.5" y2="274.5"/>
  <line fill="none" id="svg_14" stroke="#000000" stroke-dasharray="null" stroke-linecap="null" stroke-linejoin="null" stroke-width="2" x1="185.5" x2="277.5" y1="164.5" y2="162.5"/>
  <line fill="none" id="svg_16" stroke="#000000" stroke-dasharray="null" stroke-linecap="null" stroke-linejoin="null" stroke-width="2" x1="274.5" x2="274.5" y1="89.5" y2="118.5"/>
  <line fill="none" id="svg_17" stroke="#000000" stroke-dasharray="null" stroke-linecap="null" stroke-linejoin="null" stroke-width="2" x1="273.5" x2="273.5" y1="162.5" y2="146.5"/>
  <rect fill="none" height="10" id="svg_18" stroke="#ff0000" stroke-dasharray="null" stroke-linecap="null" stroke-linejoin="null" stroke-width="2" width="8" x="128.5" y="145.5"/>
  <path d="M111.5,440.5l-47.5,-31.5l0,-58l-2,-64l-1,-78l3,-117l34,-44l297,0l101,-9l50,-26l40,8l15,330l-40,28l-50,-51l-4,-118l-12,-97l-47,-6l-9,54l6,77l9,82l-15,15l-8,-14l12,-8l-7,-62l-13,-56l-25,-40l-48,45l-49,33l-43,57l-52,33l-9,23l38,15l48,-7l51,1l31,10l-20,10l-28,-13l-34,10l-59,6l-51,-13c0,0 4.5,-19.5 4.5,-62.5c0,-43 4,-17 2,-42c-2,-25 -7,-32 -7.5,-32.5c-0.5,-0.5 -23.5,17.5 -24,17c-0.5,-0.5 12.5,10.5 21.5,23.5c9,13 9,13 8.5,12.5c-0.5,-0.5 -10.5,4.5 -11,4c-0.5,-0.5 -20.5,53.5 -21,53c-0.5,-0.5 -20.5,92.5 -21,92c-0.5,-0.5 -13.5,10.5 -13.5,10.5z" fill="none" id="svg_21" stroke="#7f3f00" stroke-dasharray="null" stroke-linecap="null" stroke-linejoin="null" stroke-width="2"/>
  <rect fill="none" height="5" id="svg_22" stroke="#ff0000" stroke-dasharray="null" stroke-linecap="null" stroke-linejoin="null" stroke-width="2" width="6" x="375.5" y="395.5"/>
 </g>
</svg>