<svg width="580" height="400" xmlns="http://www.w3.org/2000/svg">
 <!-- Created with Method Draw - http://github.com/duopixel/Method-Draw/ -->
 <g>
  <title>Layer 1</title>
  <path id="svg_1" d="m74.5,333.453125l-0.5,-106.453125c0.5,0.410681 57.5,28.100008 57.5,8.453125" opacity="0.5" fill-opacity="null" stroke-opacity="null" stroke-width="1.5" stroke="#000000" fill="#fff"/>
 </g>
 <g>
  <title>background</title>
  <path id="svg_2" d="m80.5,349.453125l-0.5,-96.453125l61,0l0,-10l-64,0l0,-145l71,0l0,123l10,0l0,-68l71,0l0,-22l-10,0l0,14l-63,0l0,-45l59,0l0,12l12,0l0,-14l137,0l0,-14l-298,-1l0,262l14.5,4.453125z" fill-opacity="null" stroke-opacity="null" stroke-width="1.5" stroke="#000000" fill="#fff"/>
  <path id="svg_4" d="m140.5,343.453125c0,0 110,0 109.5,-0.453125c0.5,0.453125 0.5,-45.557743 0,-46c0,0.450381 7.5,0.453125 7,0c0.513676,0 0.5,47.495659 0,47c0,0.518934 68.689123,0.453125 68,0c0.65074,0 0.5,-62.555495 0,-63c0,0.451127 -146.5,1.453125 -146.5,1.453125c0,0 0,-11.045361 -0.5,-11.453125c0.5,0.407764 147.5,0.453125 147,0c0.500696,0 0.5,-116.615231 0,-117c0,0.366282 9.5,0.453125 9,0c0.5108,0 0.5,111.453125 0,111c0,0.454247 36.513886,0.453125 36,0c0.528914,0 0.5,10.453125 0,10c0,0.465076 -31.5,0.453125 -32,0c0.496741,0 0.5,66.4607 0,66c0,0.470052 53.5,0.453125 53,0c0.501919,0 0.5,-185.557627 0,-186c0,0.447062 8.698039,0.453125 8,0c0.84691,0 0.5,195.463487 0,195l-260,0z" fill-opacity="null" stroke-opacity="null" stroke-width="1.5" stroke="#000000" fill="#fff"/>
  <path id="svg_7" d="m460.5,44.453125l-0.5,221.546875l9,0l0,-222l-8.5,0.453125z" fill-opacity="null" stroke-opacity="null" stroke-width="1.5" stroke="#000000" fill="#fff"/>
  <path id="svg_11" d="m464.212665,308.899373c0,0 36.842561,-45.263718 35.793506,-45.73823c1.049055,0.474513 1.049055,-51.105073 0,-51.579584c1.049055,0.474511 -8.424747,-164.79069 -9.473801,-165.265198c1.049054,0.474507 -9.477392,-30.052186 -10.526446,-30.526693c1.049054,0.474506 -27.37235,2.579796 -28.421403,2.105289c1.049053,0.474506 -58.951689,13.106242 -60.000741,12.631735c1.049052,0.474507 -90.531028,15.211531 -91.580078,14.737024c1.04905,0.474507 -192.637556,6.790375 -193.686601,6.315867c1.049045,0.474507 -61.056987,6.790375 -62.10603,6.315867c1.049043,0.474508 -3.161535,46.79087 -4.210578,46.316361c1.049043,0.474509 -3.161535,207.845494 -4.210578,207.37098c1.049043,0.474514 9.4702,56.264678 9.4702,56.264678c0,0 26.316115,3.157934 26.316115,3.157934c0,0 17.894958,-2.105289 29.474049,-35.789916c11.579091,-33.684627 11.579091,-33.684627 10.530046,-34.159141c1.049045,0.474514 25.25987,-22.683667 25.25987,-22.683667c0,0 18.947603,-28.421404 18.947603,-28.421404c0,0 -27.36876,-18.947603 -28.417805,-19.422115c1.049045,0.474512 3.154334,-20.57838 2.105289,-21.052891c1.049045,0.474511 23.154582,27.843271 23.154582,27.843271c0,0 15.789669,58.948097 15.789669,61.053387c0,2.105289 51.579585,-3.157934 51.579585,-3.157934c0,0 40.000495,-9.473801 40.000495,-9.473801c0,0 11.579091,9.473801 10.530042,8.999288c1.049049,0.474514 -43.162024,-4.788709 -44.211072,-5.263223c1.049048,0.474513 -58.951694,42.580297 -58.951694,0.474513c0,-42.105784 0,-42.105784 -1.049046,-42.580296c1.049046,0.474512 39.996896,-22.683669 38.947849,-23.158181c1.049047,0.474512 71.576235,-56.368297 70.527186,-56.842807c1.049049,0.47451 14.733429,-47.947141 13.684379,-48.42165c1.049049,0.474509 38.944255,-0.578136 37.895205,-1.052645c1.04905,0.474509 25.259876,28.895913 24.210825,28.421403c1.049051,0.47451 7.364918,45.738227 6.315867,45.263717c1.049051,0.474511 13.680786,57.317319 12.631735,56.842807c1.049051,0.474512 10.522853,25.737983 9.473801,25.26347c1.049052,0.474513 -1.056238,21.527405 -2.105289,21.052891c1.049052,0.474514 3.154341,-66.894741 2.105289,-67.369253c1.049052,0.474512 -0.003593,-55.315652 -1.052645,-55.790162c1.049052,0.47451 3.154341,-41.631274 2.105289,-42.105783c1.049052,0.474509 26.312522,6.790377 25.26347,6.315867c1.049052,0.474509 13.680787,40.475004 12.631735,40.000494c1.049053,0.474511 9.470209,64.685831 8.421157,64.211319c1.049053,0.474512 9.47021,51.001453 8.421157,50.526939c1.049053,0.474513 28.417813,18.369472 28.417813,18.369472z" stroke-width="1.5" stroke="#894F3F" fill="none"/>
  <rect id="svg_14" height="7.500036" width="6.666699" y="127.043918" x="92.915711" stroke-width="1.5" fill="#ff0000"/>
  <rect id="svg_15" height="7.500036" width="5.833362" y="325.37821" x="297.916702" stroke-width="1.5" fill="#ff0000"/>
  <rect id="svg_16" height="6.666699" width="7.500036" y="252.87786" x="306.250075" stroke-width="1.5" fill="#ff0000"/>
 </g>
</svg>
