<?xml version="1.0"?>
<svg width="640" height="480" xmlns="http://www.w3.org/2000/svg" xmlns:svg="http://www.w3.org/2000/svg">
 <!-- Created with SVG-edit - https://github.com/SVG-Edit/svgedit-->
 <g class="layer">
  <title>Layer 1</title>
  <line fill="none" id="svg_34" stroke="#000000" stroke-width="2" x1="140.5" x2="142.5" y1="416.5" y2="75.5"/>
  <line fill="none" id="svg_35" stroke="#000000" stroke-width="2" x1="437.5" x2="138.498328" y1="79.5" y2="79.5"/>
  <line fill="none" id="svg_38" stroke="#000000" stroke-width="2" x1="436.5" x2="436.5" y1="78.5" y2="410.573787"/>
  <line fill="none" id="svg_39" stroke="#000000" stroke-width="2" x1="438.5" x2="381.491229" y1="408.5" y2="408.5"/>
  <line fill="none" id="svg_40" stroke="#000000" stroke-width="2" x1="383.5" x2="383.5" y1="407.5" y2="383.5"/>
  <line fill="none" id="svg_41" stroke="#000000" stroke-width="2" x1="383.5" x2="383.5" y1="344.5" y2="364.599751"/>
  <line fill="none" id="svg_42" stroke="#000000" stroke-width="2" x1="382.5" x2="439.508771" y1="343.5" y2="343.5"/>
  <line fill="none" id="svg_43" stroke="#000000" stroke-width="2" x1="384.5" x2="438.5" y1="284.5" y2="284.5"/>
  <line fill="none" id="svg_44" stroke="#000000" stroke-width="2" x1="380.5" x2="439.5" y1="220.5" y2="220.5"/>
  <line fill="none" id="svg_45" stroke="#000000" stroke-width="2" x1="377.5" x2="440.5" y1="154.5" y2="154.5"/>
  <line fill="none" id="svg_46" stroke="#000000" stroke-width="2" x1="385.5" x2="385.5" y1="282.5" y2="304.522716"/>
  <line fill="none" id="svg_47" stroke="#000000" stroke-width="2" x1="387.5" x2="387.5" y1="343.5" y2="314.5"/>
  <line fill="none" id="svg_48" stroke="#000000" stroke-width="2" x1="387.5" x2="387.5" y1="283.5" y2="240.395476"/>
  <line fill="none" id="svg_49" stroke="#000000" stroke-width="2" x1="385.5" x2="385.5" y1="221.5" y2="186.442904"/>
  <line fill="none" id="svg_50" stroke="#000000" stroke-width="2" x1="386.5" x2="386.5" y1="153.5" y2="171.5"/>
  <line fill="none" id="svg_51" stroke="#000000" stroke-width="2" x1="383.5" x2="383.5" y1="156.5" y2="119.5"/>
  <line fill="none" id="svg_52" stroke="#000000" stroke-width="2" x1="384.5" x2="384.5" y1="78.5" y2="107.517236"/>
  <line fill="none" id="svg_53" stroke="#000000" stroke-width="2" x1="318.5" x2="318.5" y1="119.5" y2="401.528367"/>
  <line fill="none" id="svg_54" stroke="#000000" stroke-dasharray="null" stroke-linecap="null" stroke-linejoin="null" stroke-width="2" x1="319.5" x2="256.301899" y1="122.5" y2="122.5"/>
  <line fill="none" id="svg_55" stroke="#000000" stroke-dasharray="null" stroke-linecap="null" stroke-linejoin="null" stroke-width="2" x1="137.5" x2="184.5" y1="411.5" y2="411.5"/>
  <line fill="none" id="svg_56" stroke="#000000" stroke-dasharray="null" stroke-linecap="null" stroke-linejoin="null" stroke-width="2" x1="182.5" x2="182.5" y1="413.5" y2="376.378578"/>
  <line fill="none" id="svg_57" stroke="#000000" stroke-dasharray="null" stroke-linecap="null" stroke-linejoin="null" stroke-width="2" x1="140.5" x2="185.5" y1="359.5" y2="359.5"/>
  <line fill="none" id="svg_59" stroke="#000000" stroke-dasharray="null" stroke-linecap="null" stroke-linejoin="null" stroke-width="2" x1="142.5" x2="187.5" y1="290.5" y2="290.5"/>
  <line fill="none" id="svg_60" stroke="#000000" stroke-dasharray="null" stroke-linecap="null" stroke-linejoin="null" stroke-width="2" x1="141.5" x2="193.509614" y1="228.5" y2="228.5"/>
  <line fill="none" id="svg_62" stroke="#000000" stroke-dasharray="null" stroke-linecap="null" stroke-linejoin="null" stroke-width="2" x1="141.5" x2="190.591751" y1="164.5" y2="164.5"/>
  <line fill="none" id="svg_63" stroke="#000000" stroke-dasharray="null" stroke-linecap="null" stroke-linejoin="null" stroke-width="2" x1="140.5" x2="195.5" y1="117.5" y2="117.5"/>
  <line fill="none" id="svg_64" stroke="#000000" stroke-dasharray="null" stroke-linecap="null" stroke-linejoin="null" stroke-width="2" x1="192.5" x2="192.5" y1="77.5" y2="98.5"/>
  <line fill="none" id="svg_65" stroke="#000000" stroke-dasharray="null" stroke-linecap="null" stroke-linejoin="null" stroke-width="2" x1="190.5" x2="190.5" y1="166.5" y2="132.5"/>
  <line fill="none" id="svg_66" stroke="#000000" stroke-dasharray="null" stroke-linecap="null" stroke-linejoin="null" stroke-width="2" x1="190.5" x2="190.5" y1="227.5" y2="193.5"/>
  <line fill="none" id="svg_67" stroke="#000000" stroke-dasharray="null" stroke-linecap="null" stroke-linejoin="null" stroke-width="2" x1="183.5" x2="183.5" y1="291.5" y2="252.5"/>
  <line fill="none" id="svg_68" stroke="#000000" stroke-dasharray="null" stroke-linecap="null" stroke-linejoin="null" stroke-width="2" x1="179.5" x2="179.5" y1="358.5" y2="308.460016"/>
  <line fill="none" id="svg_69" stroke="#000000" stroke-dasharray="null" stroke-linecap="null" stroke-linejoin="null" stroke-width="2" x1="256.5" x2="256.5" y1="121.5" y2="398.615499"/>
  <line fill="none" id="svg_70" stroke="#000000" stroke-dasharray="null" stroke-linecap="null" stroke-linejoin="null" stroke-width="2" x1="319.5" x2="256.5" y1="399.5" y2="399.5"/>
  <path d="m471.5,76.5l6.5,84.5l0,80l0,61l-3,50l-3,56l-31,34l-54,0l-41,-36l3,-55c0,0 -7.5,-40.5 -5.5,-99.5c2,-59 2,-59 1.5,-59.5c-0.5,-0.5 -2.5,-59.5 -3,-60c-0.5,-0.5 -2.5,-33.5 -3,-34c-0.5,-0.5 -57.5,-1.5 -58,-2c-0.5,-0.5 -50.5,4.5 -51,4c-0.5,-0.5 -0.5,60.5 -1,60c-0.5,-0.5 -1.5,58.5 -2,58c-0.5,-0.5 0.5,37.5 0,37c-0.5,-0.5 0.5,14.5 0.5,68.5c0,54 0,54 -0.5,53.5c-0.5,-0.5 -0.5,47.5 -1,47c-0.5,-0.5 -60.5,25.5 -61,25c-0.5,-0.5 -31.5,5.5 -42.5,-16.5c-11,-22 -11,-22 -11.5,-22.5c-0.5,-0.5 -1.5,-62.5 -2,-63c-0.5,-0.5 0.5,-45.5 0,-46c-0.5,-0.5 -1.5,-63.5 -2,-64c-0.5,-0.5 -2.5,-65.5 -3,-66c-0.5,-0.5 0.5,-48.5 0,-49c-0.5,-0.5 0.5,-49.5 0,-50c-0.5,-0.5 -19.5,-35.5 31.5,-34.5c51,1 51,1 50.5,0.5c-0.5,-0.5 48.5,0.5 48,0c-0.5,-0.5 46.5,0.5 46,0c-0.5,-0.5 69.5,0.5 69,0c-0.5,-0.5 54.5,2.5 54,2c-0.5,-0.5 56.5,1.5 56,1c-0.5,-0.5 12.5,35.5 12.5,35.5z" fill="none" id="svg_84" stroke="#7f3f00" stroke-dasharray="null" stroke-linecap="null" stroke-linejoin="null" stroke-width="2"/>
  <rect fill="none" height="5" id="svg_106" stroke="#ff0000" stroke-dasharray="null" stroke-linecap="null" stroke-linejoin="null" stroke-width="2" width="4" x="152.5" y="102.5"/>
  <rect fill="none" height="5" id="svg_108" stroke="#ff0000" stroke-dasharray="null" stroke-linecap="null" stroke-linejoin="null" stroke-width="2" width="5" x="240.5" y="134.5"/>
  <rect fill="none" height="7" id="svg_109" stroke="#ff0000" stroke-dasharray="null" stroke-linecap="null" stroke-linejoin="null" stroke-width="2" width="3" x="424.5" y="164.5"/>
  <rect fill="none" height="6" id="svg_110" stroke="#ff0000" stroke-dasharray="null" stroke-linecap="null" stroke-linejoin="null" stroke-width="2" width="4" x="328.5" y="149.5"/>
  <rect fill="none" height="4" id="svg_111" stroke="#ff0000" stroke-dasharray="null" stroke-linecap="null" stroke-linejoin="null" stroke-width="2" width="7" x="147.5" y="214.5"/>
  <rect fill="none" height="7" id="svg_112" stroke="#ff0000" stroke-dasharray="null" stroke-linecap="null" stroke-linejoin="null" stroke-width="2" width="4" x="326.5" y="307.5"/>
 </g>
</svg>