<svg width="640" height="480" xmlns="http://www.w3.org/2000/svg" xmlns:svg="http://www.w3.org/2000/svg">
 <!-- Created with SVG-edit - http://svg-edit.googlecode.com/ -->
 <g>
  <title>Layer 1</title>
  <path id="svg_2" d="m82,71l0,31l146,-1l0,-27l-146,-3z" stroke-width="5" stroke="#000000" />
  <path id="svg_3" d="m47,63l-1,226l7,0l-6,-226z" stroke-width="5" stroke="#000000" />
  <path id="svg_4" d="m139,148l70,102l-118,-2l48,-100z" stroke-width="5" stroke="#000000" />
  <path id="svg_5" d="m102,312l148,2l0,58l-143,4l-5,-64z" stroke-width="5" stroke="#000000" />
  <path id="svg_6" d="m92,418l0,21l492,10l0,-14l-492,-17z" stroke-width="5" stroke="#000000" />
  <path id="svg_7" d="m521,387l-78,-1l-36,-41l30,-49l53,-6l51,25l-20,72z" stroke-width="5" stroke="#000000" />
  <path id="svg_9" d="m357,254c-1,112 -1,112 -1,112c0,0 19,2 19,2c0,0 17,-151 17,-151c0,0 -26,-13 -26,-13c0,0 -9,50 -9,50z" stroke-width="5" stroke="#000000" />
  <path id="svg_10" d="m224,152l95,134l-26,15l-96,-151l27,2z" stroke-width="5" stroke="#000000" />
  <path id="svg_11" d="m298,171l74,-135l17,4l-79,155l-12,-24z" stroke-width="5" stroke="#000000" />
  <path id="svg_12" d="m473,99l4,110l94,-4l-15,-125l-83,19z" stroke-width="5" stroke="#000000" />
  <path id="svg_13" d="m448,23l-43,53l61,0l-18,-53z" stroke-width="5" stroke="#000000" />
  <path id="svg_14" d="m32,402l24,56l31,-57l211,-9l23,-52c0,0 -29,-8 14,-100c43,-92 43,-92 43,-92c0,0 61,65 61,65c0,0 25,-125 25,-125c0,0 20,-9 20,-9c0,0 -34,11 -34,11c0,0 -66,-1 -66,-1c0,0 28,-58 28,-58c0,0 -61,-5 -61,-5c0,0 -84,98 -84,98c0,0 -105,5 -105,5c0,0 -83,3 -83,3c0,0 -2,129 -2,129c0,0 -3,67 -3,67c0,0 -49,0 -49,0c0,0 7,74 7,74z" fill-opacity="0" stroke-width="5" stroke="#894F3F" fill="#000000"/>
  <rect id="svg_17" height="8" width="6" y="259" x="538" stroke-width="5" stroke="#ff0000" />
  <rect id="svg_19" height="4" width="6" y="242" x="410" stroke-width="5" stroke="#ff0000" />
  <rect id="svg_20" height="6" width="7" y="144" x="276" stroke-width="5" stroke="#ff0000" />
  <rect id="svg_21" height="4" width="3" y="163" x="165" stroke-width="5" stroke="#ff0000" />
  <rect id="svg_22" height="11" width="8" y="32" x="24" stroke-width="5" stroke="#ff0000" />
  <rect id="svg_23" height="8" width="5" y="406" x="279" stroke-width="5" stroke="#ff0000" />
  <rect id="svg_24" height="9" width="8" y="30" x="496" stroke-width="5" stroke="#ff0000" />
  <rect id="svg_25" height="12" width="6" y="6" x="324" stroke-width="5" stroke="#ff0000" />
  <rect id="svg_26" height="4" width="6" y="344" x="67" stroke-width="5" stroke="#ff0000" />
  <rect id="svg_27" height="7" width="9" y="406" x="594" stroke-width="5" stroke="#ff0000" />
 </g>
</svg>
