<svg width="400" height="400" xmlns="http://www.w3.org/2000/svg">
 <!-- Created with Method Draw - http://github.com/duopixel/Method-Draw/ -->
 <g>
  <title>background</title>
 </g>
 <g>
  <title>Layer 1</title>
  <path id="svg_2" d="m154.333148,340.969324l-0.33252,-241.635585l49.333534,0l0,242.000987l-49.001015,-0.365401z" stroke-width="1.5" stroke="#000000" fill="none"/>
  <path id="svg_17" d="m94.848957,289.971179l-0.303929,42.754594l-44.242224,0l0,-85.45416l35.151356,0l0,29.090778l7.272695,0l0,-73.939061l-7.878753,0l0,34.545299l-36.363472,0l0,-87.878392l32.121067,0l0,40.605878l7.878753,0l0,-92.726855l-8.484811,0l0,39.99982l-28.48472,0l0,-70.302714l27.272605,0l0,23.636257l7.272694,0l0,-27.878662l-35.757414,-0.606058l0,-26.666546l26.666546,0l0,18.787794l6.060579,0l0,-18.787794l181.211304,0l0,35.151356l4.848463,0l0,-35.151356l32.727125,0l0,47.878572l-38.181646,0l0,29.696836l5.454521,0l0,-26.666547l33.333183,0l0,70.908771l-30.908951,0l0,-35.757414l-6.666637,0l-0.606058,86.666276l6.060579,0l0,-41.817994c0,0.186034 30.000759,3.305807 30.606817,2.69975c0.606058,-0.606058 0,82.432781 -0.303923,82.148353c0.303923,0.284428 -26.36921,0.275516 -26.666547,0c0.301852,0 0.303924,-30.639495 0,-30.908952c0,0.274027 -6.39294,0.275517 -6.666637,0c0.295345,0 0.303925,69.995678 -0.606057,69.696656c0.606057,0.291897 8.362711,0.275515 7.878752,0c0.448071,0 0.303924,-28.821996 -0.606058,-29.090778c0.606058,0.26115 27.68904,0.275515 27.272604,0c0.435762,0 0.303924,73.067736 -0.606057,72.726945c0.606057,0.326405 -26.430709,0.275513 -26.666547,0c0.258827,0 0.303924,-31.540994 0,-32.121068c0,0.552489 -5.150597,0.881573 -5.454521,-0.606057c0.229024,0.606057 0.303924,42.111594 0,41.817993c0,0.28531 40.321565,0.275513 39.99982,0c0.314804,0 0.303923,-311.844875 0,-312.119805c0,0.275374 -265.755477,0.275521 -266.059407,0c0.303787,0 0.30393,307.561797 0,307.271342c0,0.293587 58.605234,0.275514 58.181556,0c0.434607,0 0.303928,-47.617316 0,-47.878572c0,0.25138 5.152391,49.972259 -5.75665,0.275515z" fill-opacity="null" stroke-opacity="null" stroke-width="1.5" stroke="#000000" fill="none"/>
  <path id="svg_18" d="m252.424,368.152643l60.301863,0.330545l17.575678,-33.333183l0,-319.3925l-306.665284,1.818174l-0.606058,343.028757c0.30393,0.275513 87.576262,-3.360834 87.576262,-3.360834c0,0 11.515099,-16.96962 11.515099,-16.96962c0,0 -0.606058,-264.847285 -0.909986,-265.122805c0.303928,0.27552 98.485301,-2.754769 98.485301,-2.754769c0,0 11.515099,25.45443 11.211174,25.178911c0.303925,0.275519 -0.908191,94.214488 -1.212116,93.93897c0.303925,0.275517 -2.726364,132.396131 -3.030289,132.120617c0.303925,0.275514 -126.060038,-33.687861 25.758355,44.517738z" fill-opacity="null" stroke-width="1.5" stroke="#894F3F" fill="none"/>
  <rect id="svg_19" height="5.454521" width="2.424231" y="93.002374" x="294.84805" fill-opacity="null" stroke-width="1.5" stroke="#ff0000" fill="none"/>
  <rect stroke="#ff0000" id="svg_20" height="3.636345" width="4.242405" y="252.395589" x="209.99995" fill-opacity="null" stroke-width="1.5" fill="none"/>
  <rect id="svg_21" height="3.636347" width="3.030289" y="101.487184" x="209.393892" fill-opacity="null" stroke-opacity="null" stroke-width="1.5" stroke="#ff0000" fill="none"/>
  <rect id="svg_22" height="6.060579" width="6.060579" y="106.941705" x="133.63666" fill-opacity="null" stroke-opacity="null" stroke-width="1.5" stroke="#ff0000" fill="none"/>
  <rect stroke="#ff0000" id="svg_23" height="3.636347" width="6.666636" y="51.79044" x="54.849138" fill-opacity="null" stroke-opacity="null" stroke-width="1.5" fill="none"/>
  <rect id="svg_24" height="7.272694" width="3.636347" y="158.456623" x="50.606733" fill-opacity="null" stroke-width="1.5" stroke="#ff0000" fill="none"/>
 </g>
</svg>
